PathFileType	4	(X/Y/Z)	C:/Users/opensim2020/Desktop/walking_exp_matlab/subject02_walking07_straight_04.trc																																																																																																																																																				
DataRate	CameraRate	NumFrames	NumMarkers	Units	OrigDataRate	OrigDataStartFrame	OrigNumFrames																																																																																																																																																
100	100	5	50	mm	100	2902	207																																																																																																																																																
Frame#	Time	LFHD			RFHD			LBHD			RBHD			C7			T10			CLAV			STRN			RBAK			LSHO			LUPA			LELB			LFRM			LWRA			LWRB			LFIN			RSHO			RUPA			RELB			RFRM			RWRA			RWRB			RFIN			LASI			RASI			LPSI			RPSI			LTHI			LKNE			LTIB			LANK			LHEE			LTOE			RTHI			RKNE			RTIB			RANK			RHEE			RTOE			*39			*40			*41			*42			*43			*44			*45			*46			*47			*48			*49		
		X1	Y1	Z1	X2	Y2	Z2	X3	Y3	Z3	X4	Y4	Z4	X5	Y5	Z5	X6	Y6	Z6	X7	Y7	Z7	X8	Y8	Z8	X9	Y9	Z9	X10	Y10	Z10	X11	Y11	Z11	X12	Y12	Z12	X13	Y13	Z13	X14	Y14	Z14	X15	Y15	Z15	X16	Y16	Z16	X17	Y17	Z17	X18	Y18	Z18	X19	Y19	Z19	X20	Y20	Z20	X21	Y21	Z21	X22	Y22	Z22	X23	Y23	Z23	X24	Y24	Z24	X25	Y25	Z25	X26	Y26	Z26	X27	Y27	Z27	X28	Y28	Z28	X29	Y29	Z29	X30	Y30	Z30	X31	Y31	Z31	X32	Y32	Z32	X33	Y33	Z33	X34	Y34	Z34	X35	Y35	Z35	X36	Y36	Z36	X37	Y37	Z37	X38	Y38	Z38	X39	Y39	Z39	X40	Y40	Z40	X41	Y41	Z41	X42	Y42	Z42	X43	Y43	Z43	X44	Y44	Z44	X45	Y45	Z45	X46	Y46	Z46	X47	Y47	Z47	X48	Y48	Z48	X49	Y49	Z49	X50	Y50	Z50
																																																																																																																																																							
182	1.81	931.99896	1706.35425	919.31317	934.76947	1695.0271	1062.15613	789.16998	1656.87939	920.28345	779.7851	1646.31885	1062.2439	724.57788	1508.09265	1011.44128	691.49902	1226.04443	1020.94226	866.51105	1447.72656	983.8526	935.08179	1284.11438	1002.39001	685.94446	1329.68213	1087.77783	760.57239	1476.48645	830.13312	726.26398	1279.68823	756.97815	713.68347	1138.573	749.573	714.7851	1007.37775	729.57526	776.39648	880.71527	727.40253	720.26611	884.12238	719.32275	735.80731	819.92914	706.72101	824.05206	1490.1311	1186.38782	852.24438	1297.13501	1272.45129	908.79553	1160.9447	1285.47388	974.87341	1058.69922	1294.25464	1051.80847	950.24097	1259.49146	1019.43829	936.52747	1304.23047	1070.43079	884.33331	1291.99365	955.84619	994.96729	885.21954	932.43848	956.78534	1134.58508	736.04266	1016.7298	948.61469	723.28125	1009.78271	1064.11169	951.64325	681.34833	825.38879	942.47504	475.97134	858.7774	906.26257	282.95404	861.87823	928.68585	64.75601	905.30743	895.328	37.96451	959.97546	1085.32678	29.23488	889.47485	814.37677	652.33789	1210.95032	798.28638	452.20105	1208.39868	650.65265	342.08893	1200.72754	513.422	211.85048	1156.24817	464.9903	197.85104	1090.30103	563.33667	55.92614	1171.47351	848.09021	1793.94983	1008.1394	-2845.96021	1033.92163	3357.33813	NaN	NaN	NaN	NaN	NaN	NaN	NaN	NaN	NaN	NaN	NaN	NaN	NaN	NaN	NaN	NaN	NaN	NaN	NaN	NaN	NaN	NaN	NaN	NaN	NaN	NaN	NaN
183	1.82	940.57794	1707.33032	917.73572	943.66461	1696.33704	1060.55054	797.61853	1658.29724	918.74695	788.58649	1647.84741	1061.14966	733.49292	1509.45398	1010.34601	700.2962	1227.2168	1018.802	875.24878	1449.27698	983.08704	943.85181	1285.60046	1001.46637	694.2832	1330.98779	1085.81091	769.70697	1478.14331	829.1759	736.56635	1281.57483	754.91071	725.27429	1140.15735	746.54779	729.56396	1009.01312	726.2428	795.47729	884.34326	723.16266	738.8233	885.98431	715.59399	756.33295	822.71466	702.00238	831.91052	1490.93774	1185.70898	859.70081	1297.64014	1271.6637	915.9281	1160.91785	1283.02637	981.20239	1058.59912	1292.18713	1056.83472	949.05548	1256.90076	1024.66553	936.03912	1302.23022	1074.82214	882.63525	1289.3855	964.7951	994.84473	884.02808	940.45685	958.00909	1133.84485	745.05725	1018.37531	945.94391	731.27509	1011.3418	1061.34998	955.74628	681.10944	824.45575	945.63635	475.90994	857.83063	908.78589	283.00449	860.50134	928.78333	64.73869	905.17169	895.62604	37.90884	959.75555	1085.33728	29.14279	889.54132	827.79413	653.36664	1210.57581	816.92242	453.36099	1209.34351	668.91833	345.07034	1201.04089	530.25372	216.31451	1155.49634	482.55078	200.88625	1088.83435	579.17865	60.97991	1175.69861	856.71454	1795.38818	1006.56677	-2845.84937	1034.17493	3357.38696	NaN	NaN	NaN	NaN	NaN	NaN	NaN	NaN	NaN	NaN	NaN	NaN	NaN	NaN	NaN	NaN	NaN	NaN	NaN	NaN	NaN	NaN	NaN	NaN	NaN	NaN	NaN
184	1.83	948.5896	1708.72778	916.22278	952.30194	1698.01111	1059.01379	805.96484	1659.3512	917.9126	797.13763	1649.48108	1060.42517	742.07361	1510.76062	1009.18256	709.03949	1228.43005	1016.62433	883.83636	1450.64099	982.50775	952.42957	1286.90723	1000.74536	702.4259	1332.18994	1084.42322	779.04755	1479.87451	828.12183	746.97772	1283.58228	752.82544	736.93744	1141.84436	743.51202	744.67487	1010.38959	722.65149	814.13483	888.2381	718.98029	757.43549	887.99652	711.77887	776.60938	825.38409	697.75977	839.52887	1491.72986	1185.07971	866.91376	1298.01379	1270.3147	922.78607	1161.39209	1281.61353	987.50098	1058.44788	1290.36035	1062.69788	948.49298	1255.05212	1030.22607	935.73206	1300.2627	1079.12048	881.1413	1287.15808	973.78485	994.53198	883.10706	948.19397	959.42328	1133.5177	753.99933	1019.99188	943.25165	739.07874	1012.77551	1058.45068	960.06476	680.88385	823.74054	948.73346	475.76624	857.03729	910.99933	282.83667	859.62646	928.82355	64.66155	905.16296	895.59155	37.68604	959.93671	1085.53577	29.11542	889.57111	841.19208	654.83289	1210.4137	835.52039	455.12357	1210.18811	687.19751	347.83032	1201.08594	548.05133	219.73393	1154.69653	501.0228	202.84044	1087.29797	596.45557	65.24825	1180.59546	865.26379	1796.80762	1005.14459	-2845.25562	1034.12854	3360.31494	NaN	NaN	NaN	NaN	NaN	NaN	NaN	NaN	NaN	NaN	NaN	NaN	NaN	NaN	NaN	NaN	NaN	NaN	NaN	NaN	NaN	NaN	NaN	NaN	NaN	NaN	NaN
185	1.84	956.9942	1709.93457	914.67517	960.91071	1699.4895	1057.65137	813.96149	1660.6239	917.12817	805.87006	1650.90002	1059.5874	750.34265	1512.01367	1007.86713	717.67297	1229.63367	1014.42017	892.47601	1451.95874	981.90326	960.9314	1288.03137	1000.11835	710.76703	1333.07764	1082.20728	788.54852	1481.69263	827.07251	757.35852	1285.43823	750.79047	747.75079	1143.55774	740.46765	759.78235	1011.92163	719.7207	832.54633	892.45905	715.16431	775.86078	890.28326	708.34296	797.41809	828.8067	693.30365	846.96655	1492.56323	1184.4054	873.96265	1298.36023	1269.32581	929.58783	1161.54602	1279.62244	993.64972	1058.36462	1288.6322	1068.38477	947.78888	1253.46387	1035.52905	935.14423	1298.53479	1083.49646	879.80682	1285.35522	982.81677	994.01624	882.35754	955.797	960.8313	1133.5481	762.59833	1021.52362	940.70532	746.74036	1014.11761	1055.53809	964.26105	680.73877	823.24951	951.58228	475.56387	856.36273	913.06445	282.76917	858.87897	928.91577	64.5885	905.11707	895.50098	37.69919	959.87921	1085.3678	29.05101	889.55231	854.79529	656.38397	1210.3009	853.94183	457.30655	1210.84448	705.62573	350.2128	1200.88306	566.54352	222.02283	1153.93372	520.35956	203.29192	1085.72351	614.73352	69.18858	1185.6687	873.81989	1798.01355	1003.8114	-2845.19775	1034.07373	3360.40283	NaN	NaN	NaN	NaN	NaN	NaN	NaN	NaN	NaN	NaN	NaN	NaN	NaN	NaN	NaN	NaN	NaN	NaN	NaN	NaN	NaN	NaN	NaN	NaN	NaN	NaN	NaN
186	1.85	965.33612	1711.13965	913.46075	968.97455	1700.55322	1056.35181	822.51733	1661.73242	916.30383	814.67346	1652.12439	1058.70142	758.89429	1513.3075	1006.66559	726.25696	1230.89905	1012.22614	901.08685	1453.16956	981.34741	969.2381	1288.94714	999.49438	719.06189	1333.87781	1079.66785	798.10486	1483.55261	826.0343	768.10486	1287.81714	748.72339	758.67096	1145.36987	737.57239	774.25665	1014.16083	716.14417	851.00287	897.10919	711.45074	794.4234	892.9422	704.74396	817.9267	832.44403	689.15729	854.4552	1493.27405	1183.77356	880.65082	1298.66589	1268.15369	936.18799	1161.73621	1278.36133	999.38385	1058.24695	1287.08398	1073.78198	947.15509	1252.13599	1040.68213	934.74341	1297.13794	1087.93408	878.70697	1283.87732	991.53894	993.26953	881.75708	963.15442	962.37549	1133.53882	771.09534	1022.97931	938.40369	754.17432	1015.4173	1052.84668	968.59521	680.53687	822.85779	954.17487	475.43857	855.77057	914.62885	282.85605	858.31647	928.93127	64.60882	905.18097	895.44263	37.75372	959.91156	1085.3999	28.99051	889.56689	868.40833	658.10272	1210.47925	871.83386	459.3927	1211.3042	723.88538	352.26157	1200.4873	585.45123	223.42343	1153.33044	540.34723	202.4337	1084.50647	634.25726	72.58152	1190.75134	882.11792	1799.5083	1002.69598	-2845.24805	1033.97095	3360.33496	NaN	NaN	NaN	NaN	NaN	NaN	NaN	NaN	NaN	NaN	NaN	NaN	NaN	NaN	NaN	NaN	NaN	NaN	NaN	NaN	NaN	NaN	NaN	NaN	NaN	NaN	NaN
